<?xml version="1.0" encoding="utf-8"?>
<!-- Generator: Adobe Illustrator 25.3.1, SVG Export Plug-In . SVG Version: 6.00 Build 0)  -->
<svg version="1.1" id="Layer_1" xmlns="http://www.w3.org/2000/svg" xmlns:xlink="http://www.w3.org/1999/xlink" x="0px" y="0px"
	 viewBox="0 0 67.4 58.4" style="enable-background:new 0 0 67.4 58.4;" xml:space="preserve">
<path id="Check_Dark" d="M66.9,9l-8.3-8.6c-0.6-0.6-1.5-0.6-2.1,0c0,0,0,0,0,0L21.3,36.5c-0.6,0.6-1.5,0.6-2.1,0c0,0,0,0,0,0
	L10.9,28c-0.6-0.6-1.5-0.6-2.1,0c0,0,0,0,0,0l-8.3,8.6c-0.6,0.6-0.6,1.6,0,2.2l18.8,19.2c0.6,0.6,1.5,0.6,2.1,0c0,0,0,0,0,0
	l45.6-46.8C67.5,10.6,67.5,9.6,66.9,9z"/>
</svg>
